<svg width="44" height="44" viewBox="0 0 44 44" fill="none" xmlns="http://www.w3.org/2000/svg">
<path d="M2.6095 31.6349V39.7556H13.9698V31.6349L8.28966 28.5201L2.6095 31.6349Z" stroke="#1A2578" stroke-width="1.5" stroke-linecap="round" stroke-linejoin="round"/>
<path d="M10.381 33.4268H6.42078V39.7539H10.381V33.4268Z" stroke="#1A2578" stroke-width="1.5" stroke-linecap="round" stroke-linejoin="round"/>
<path d="M21.4868 31.875C26.7818 31.875 31.0743 27.5825 31.0743 22.2874C31.0743 16.9923 26.7818 12.6998 21.4868 12.6998C16.1917 12.6998 11.8992 16.9923 11.8992 22.2874C11.8992 27.5825 16.1917 31.875 21.4868 31.875Z" stroke="#BF0830" stroke-width="1.5" stroke-linecap="round" stroke-linejoin="round"/>
<path d="M15.3165 24.1627L19.0926 27.9372L27.8475 19.1823L25.8794 17.2142L19.0478 24.0442L17.2558 22.2522L15.3165 24.1627Z" stroke="#BF0830" stroke-width="1.5" stroke-linecap="round" stroke-linejoin="round"/>
<path d="M40.4203 3.48706H29.2201V14.4663H40.4203V3.48706Z" stroke="#1A2578" stroke-width="1.5" stroke-linecap="round" stroke-linejoin="round"/>
<path d="M36.9132 9.8125H32.7272V14.4662H36.9132V9.8125Z" stroke="#1A2578" stroke-width="1.5" stroke-linecap="round" stroke-linejoin="round"/>
<path d="M4.7478 21.9991C4.7477 17.7904 6.33302 13.7361 9.18796 10.6437C12.0429 7.55135 15.958 5.64789 20.1533 5.3125" stroke="#1A2578" stroke-width="1.5" stroke-linecap="round" stroke-linejoin="round"/>
<path d="M16.8 10.9751L15.8472 10.1936L19.697 5.50314L14.7374 2.00567L15.4485 1L21.4889 5.26133L16.8 10.9751Z" fill="#1A2578"/>
<path d="M38.228 21.9993C38.2281 26.2082 36.6429 30.2627 33.788 33.3553C30.9331 36.4479 27.018 38.3517 22.8225 38.6875" stroke="#1A2578" stroke-width="1.5" stroke-linecap="round" stroke-linejoin="round"/>
<path d="M26.1758 33.0249L27.1287 33.8048L23.2789 38.4969L28.2385 41.9944L27.5274 43L21.4869 38.7387L26.1758 33.0249Z" fill="#1A2578"/>
</svg>
