<svg width="39" height="42" viewBox="0 0 39 42" fill="none" xmlns="http://www.w3.org/2000/svg">
<path d="M20.0257 18.1204V36.4274C20.0259 36.9513 19.9229 37.47 19.7226 37.954C19.5223 38.438 19.2285 38.8778 18.8582 39.2483C18.4879 39.6188 18.0482 39.9127 17.5643 40.1132C17.0803 40.3137 16.5616 40.4169 16.0378 40.4169V40.4169C15.514 40.4169 14.9953 40.3137 14.5113 40.1132C14.0274 39.9127 13.5877 39.6188 13.2174 39.2483C12.8471 38.8778 12.5533 38.438 12.353 37.954C12.1527 37.47 12.0497 36.9513 12.0499 36.4274V34.0057" stroke="#BF0830" stroke-width="1.5" stroke-linecap="round" stroke-linejoin="round"/>
<path d="M1 20.8312C1 20.8312 3.81086 3.995 20.0255 3.995C36.2402 3.995 38 20.8312 38 20.8312C38 20.8312 32.1264 15.2514 25.6667 20.8312C25.6667 20.8312 18.6193 14.1746 13.1364 20.8312C13.1364 20.8312 6.67666 14.6638 1 20.8312Z" stroke="#1A2578" stroke-width="1.5" stroke-linecap="round" stroke-linejoin="round"/>
<path d="M20.0255 3.99494V1" stroke="#BF0830" stroke-width="1.5" stroke-linecap="round" stroke-linejoin="round"/>
</svg>
