<svg width="42" height="43" viewBox="0 0 42 43" fill="none" xmlns="http://www.w3.org/2000/svg">
<path d="M1.00012 34.1033L11.0615 26.3268C11.0615 26.3268 15.5643 23.19 19.7705 26.9444L28.9876 29.1335C29.5161 29.2588 29.9751 29.5851 30.2671 30.0432C30.559 30.5013 30.661 31.0551 30.5514 31.5872V31.5872C30.44 32.129 30.1184 32.6045 29.657 32.9096C29.1957 33.2147 28.6322 33.3245 28.0901 33.2149L18.7939 31.3377L28.1144 33.2271C28.3772 33.2813 28.6486 33.2796 28.9107 33.2219C29.1728 33.1643 29.4198 33.052 29.6356 32.8924L37.9172 26.7892C38.2902 26.5071 38.7527 26.3694 39.2194 26.4016C39.686 26.4337 40.1252 26.6336 40.4561 26.9642V26.9642C40.6494 27.1576 40.7996 27.3898 40.8968 27.6454C40.994 27.901 41.036 28.1742 41.02 28.4472C41.0041 28.7202 40.9305 28.9868 40.8042 29.2293C40.6779 29.4719 40.5017 29.6849 40.2872 29.8545L29.9688 38.0022C29.2528 38.5681 28.3668 38.8757 27.4542 38.8754H10.7207L6.98765 42" stroke="#1A2578" stroke-width="1.5" stroke-linecap="round" stroke-linejoin="round"/>
<path d="M28.3196 4.92322C29.6248 4.92322 34.8806 6.03675 34.8806 11.5466C34.8806 11.5466 34.6251 15.2736 32.2367 16.9622C32.2367 16.9622 31.0593 17.63 31.0593 21.1653V24.3188H25.1707V21.0345C25.1707 21.0345 25.5936 18.4043 23.7057 16.7979C22.2089 15.5246 21.2824 13.7737 21.4133 11.0963C21.5365 8.48592 23.9248 4.92322 28.3196 4.92322Z" stroke="#BF0830" stroke-width="1.5" stroke-linecap="round" stroke-linejoin="round"/>
<path d="M25.1665 22.0522H31.0597" stroke="#BF0830" stroke-width="1.5" stroke-linecap="round" stroke-linejoin="round"/>
<path d="M31.1769 19.3992H25.1665" stroke="#BF0830" stroke-width="1.5" stroke-linecap="round" stroke-linejoin="round"/>
<path d="M28.7015 8.32617L26.8867 11.7018H29.4986L27.6184 14.8872" stroke="#BF0830" stroke-width="1.5" stroke-linecap="round" stroke-linejoin="round"/>
<path d="M34.1476 5.58648L35.6764 4.0896" stroke="#BF0830" stroke-width="1.5" stroke-linecap="round" stroke-linejoin="round"/>
<path d="M36.6637 11.7339H38.8619" stroke="#BF0830" stroke-width="1.5" stroke-linecap="round" stroke-linejoin="round"/>
<path d="M34.1476 17.8171L35.6764 19.2182" stroke="#BF0830" stroke-width="1.5" stroke-linecap="round" stroke-linejoin="round"/>
<path d="M22.0766 17.8171L20.4854 19.2182" stroke="#BF0830" stroke-width="1.5" stroke-linecap="round" stroke-linejoin="round"/>
<path d="M19.5604 11.7339H17.3638" stroke="#BF0830" stroke-width="1.5" stroke-linecap="round" stroke-linejoin="round"/>
<path d="M22.0766 5.71426L20.4854 4.0896" stroke="#BF0830" stroke-width="1.5" stroke-linecap="round" stroke-linejoin="round"/>
<path d="M28.1127 3.13427L28.172 1" stroke="#BF0830" stroke-width="1.5" stroke-linecap="round" stroke-linejoin="round"/>
</svg>
