<svg width="42" height="40" viewBox="0 0 42 40" fill="none" xmlns="http://www.w3.org/2000/svg">
<path d="M6.25721 38.3565C9.16069 38.3565 11.5144 36.0027 11.5144 33.0992C11.5144 30.1958 9.16069 27.842 6.25721 27.842C3.35373 27.842 1 30.1958 1 33.0992C1 36.0027 3.35373 38.3565 6.25721 38.3565Z" stroke="#1A2578" stroke-width="1.5" stroke-linecap="round" stroke-linejoin="round"/>
<path d="M35.9803 38.8314C38.7526 38.8314 41 36.584 41 33.8117C41 31.0394 38.7526 28.792 35.9803 28.792C33.208 28.792 30.9606 31.0394 30.9606 33.8117C30.9606 36.584 33.208 38.8314 35.9803 38.8314Z" stroke="#1A2578" stroke-width="1.5" stroke-linecap="round" stroke-linejoin="round"/>
<path d="M34.0042 9.10828C35.9904 9.10828 37.6006 7.4981 37.6006 5.51184C37.6006 3.52558 35.9904 1.91541 34.0042 1.91541C32.0179 1.91541 30.4077 3.52558 30.4077 5.51184C30.4077 7.4981 32.0179 9.10828 34.0042 9.10828Z" stroke="#1A2578" stroke-width="1.5" stroke-linecap="round" stroke-linejoin="round"/>
<path d="M6.92911 8.23811C8.84979 8.23811 10.4068 6.68109 10.4068 4.76041C10.4068 2.83973 8.84979 1.28271 6.92911 1.28271C5.00843 1.28271 3.45142 2.83973 3.45142 4.76041C3.45142 6.68109 5.00843 8.23811 6.92911 8.23811Z" stroke="#1A2578" stroke-width="1.5" stroke-linecap="round" stroke-linejoin="round"/>
<path d="M20.921 28.3969C26.3785 28.3969 30.8027 23.9727 30.8027 18.5152C30.8027 13.0577 26.3785 8.63354 20.921 8.63354C15.4635 8.63354 11.0393 13.0577 11.0393 18.5152C11.0393 23.9727 15.4635 28.3969 20.921 28.3969Z" stroke="#BF0830" stroke-width="1.5" stroke-linecap="round" stroke-linejoin="round"/>
<path d="M20.6837 24.6816C23.8711 24.6816 26.4549 22.0977 26.4549 18.9104C26.4549 15.723 23.8711 13.1392 20.6837 13.1392C17.4963 13.1392 14.9125 15.723 14.9125 18.9104C14.9125 22.0977 17.4963 24.6816 20.6837 24.6816Z" stroke="#BF0830" stroke-width="1.5" stroke-linecap="round" stroke-linejoin="round"/>
<path d="M9.10217 7.47522L16.6431 14.7917" stroke="#1A2578" stroke-width="1.5" stroke-linecap="round" stroke-linejoin="round"/>
<path d="M31.3835 7.97461L24.9666 15.0439" stroke="#1A2578" stroke-width="1.5" stroke-linecap="round" stroke-linejoin="round"/>
<path d="M32.2765 30.4218L24.9666 22.7767" stroke="#1A2578" stroke-width="1.5" stroke-linecap="round" stroke-linejoin="round"/>
<path d="M10.21 29.6362L16.6432 23.0289" stroke="#1A2578" stroke-width="1.5" stroke-linecap="round" stroke-linejoin="round"/>
</svg>
