<svg width="44" height="44" viewBox="0 0 44 44" fill="none" xmlns="http://www.w3.org/2000/svg">
<path d="M15.3741 31.4625H2V41.1559H15.3741V31.4625Z" stroke="#1A2578" stroke-width="1.5" stroke-linecap="round" stroke-linejoin="round"/>
<path d="M28.8706 25.9412H15.374V41.1557H28.8706V25.9412Z" stroke="#1A2578" stroke-width="1.5" stroke-linecap="round" stroke-linejoin="round"/>
<path d="M41.9999 19.7845H28.8707V41.1557H41.9999V19.7845Z" stroke="#1A2578" stroke-width="1.5" stroke-linecap="round" stroke-linejoin="round"/>
<path d="M24.7665 6.23499H7.75464V19.7862H24.7665V6.23499Z" stroke="#BF0830" stroke-width="1.5" stroke-linecap="round" stroke-linejoin="round"/>
<path d="M7.75464 6.23499V10.1309C7.75464 10.6466 7.95952 11.1413 8.32422 11.5059C8.68891 11.8706 9.18353 12.0755 9.69928 12.0755H22.8235C23.339 12.0751 23.8332 11.87 24.1975 11.5054C24.5618 11.1407 24.7665 10.6464 24.7665 10.1309V6.23499H7.75464Z" stroke="#BF0830" stroke-width="1.5" stroke-linecap="round" stroke-linejoin="round"/>
<path d="M13.5967 14.1774V12.0756" stroke="#BF0830" stroke-width="1.5" stroke-linecap="round" stroke-linejoin="round"/>
<path d="M19.0797 14.1774V12.0756" stroke="#BF0830" stroke-width="1.5" stroke-linecap="round" stroke-linejoin="round"/>
<path d="M12.7759 6.23506V2.95483H19.7964V6.23506" stroke="#BF0830" stroke-width="1.5" stroke-linecap="round" stroke-linejoin="round"/>
</svg>
